<?xml version="1.0" encoding="UTF-8" standalone="no"?>
<svg
   version="1.0"
   width="1072.8335pt"
   height="1383.6504pt"
   viewBox="0 0 1072.8335 1383.6504"
   preserveAspectRatio="xMidYMid"
   id="svg37"
   sodipodi:docname="tiger_head_zhThh.svg"
   xmlns:inkscape="http://www.inkscape.org/namespaces/inkscape"
   xmlns:sodipodi="http://sodipodi.sourceforge.net/DTD/sodipodi-0.dtd"
   xmlns="http://www.w3.org/2000/svg"
   xmlns:svg="http://www.w3.org/2000/svg">
  <defs
     id="defs37" />
  <sodipodi:namedview
     id="namedview37"
     pagecolor="#ffffff"
     bordercolor="#000000"
     borderopacity="0.25"
     inkscape:showpageshadow="2"
     inkscape:pageopacity="0.0"
     inkscape:pagecheckerboard="0"
     inkscape:deskcolor="#d1d1d1"
     inkscape:document-units="pt">
    <inkscape:page
       x="0"
       y="0"
       width="1072.8335"
       height="1383.6504"
       id="page2"
       margin="0"
       bleed="0" />
  </sodipodi:namedview>
  <g
     transform="matrix(0.1,0,0,-0.1,-463.28067,1719.8369)"
     fill="#000000"
     stroke="none"
     id="g37">
    <path
       d="m 5890,17194 c -294,-50 -436,-136 -602,-364 -227,-310 -363,-736 -344,-1075 21,-366 196,-645 572,-910 77,-54 175,-124 218,-154 121,-86 221,-184 249,-244 42,-91 77,-270 77,-400 0,-108 23,-77 -384,-507 -216,-228 -357,-398 -515,-623 -64,-91 -81,-121 -72,-130 8,-8 51,-12 123,-12 124,0 138,-8 95,-53 -125,-135 -371,-587 -485,-892 -114,-306 -163,-502 -187,-743 -8,-76 2,-89 52,-64 41,20 162,51 170,43 4,-4 -1,-28 -11,-54 -69,-180 -95,-270 -120,-407 -9,-49 -20,-112 -26,-140 -22,-121 -35,-296 -35,-505 1,-608 131,-1059 442,-1523 162,-243 163,-244 245,-208 24,10 106,40 183,66 236,81 237,82 206,141 -48,94 -127,308 -149,404 -20,82 -41,194 -47,250 -9,77 -14,90 -33,90 -29,0 -174,-96 -272,-180 -52,-44 -102,-80 -111,-80 -20,0 -45,56 -59,135 -6,33 -14,146 -17,250 -8,293 28,562 141,1040 71,300 194,689 268,844 28,59 37,86 29,94 -10,10 -182,-12 -374,-50 -50,-10 -82,-12 -88,-6 -14,14 12,74 131,308 175,343 370,673 635,1074 136,207 159,247 151,266 -2,7 -25,21 -50,30 -55,21 -59,42 -18,90 16,17 71,90 122,161 51,71 181,246 289,389 188,251 389,543 425,619 21,45 17,72 -9,68 -11,-1 -71,-7 -132,-14 -134,-14 -146,-10 -118,49 202,425 283,558 496,810 49,57 87,108 84,112 -2,5 -42,11 -87,14 -159,10 -311,98 -508,296 -134,134 -237,296 -291,452 -53,156 -82,346 -60,387 23,43 45,26 130,-104 179,-271 344,-423 537,-493 136,-50 224,-60 224,-26 0,7 -43,52 -95,99 -105,97 -144,146 -203,256 -62,116 -131,325 -147,447 -6,44 -4,54 10,59 11,5 25,-4 43,-27 214,-264 387,-426 636,-597 257,-177 381,-207 591,-141 54,17 128,44 164,61 142,65 312,128 611,228 390,129 613,175 840,173 148,-1 237,-24 413,-104 62,-29 126,-53 142,-56 21,-3 56,8 120,40 92,45 208,86 305,108 135,30 385,8 635,-56 167,-43 266,-72 390,-112 138,-45 215,-74 530,-198 192,-75 205,-80 319,-100 108,-20 181,-11 270,35 85,43 328,208 421,285 114,94 276,257 348,349 96,123 103,130 116,122 15,-10 9,-50 -30,-202 -31,-122 -49,-169 -111,-289 -71,-140 -115,-192 -233,-280 -38,-29 -79,-62 -90,-75 -19,-21 -19,-22 -1,-36 36,-26 200,4 311,58 167,80 375,288 517,520 44,70 57,82 83,72 50,-20 -28,-373 -126,-567 -110,-219 -286,-406 -476,-505 -105,-55 -170,-74 -266,-77 -48,-1 -90,-5 -94,-8 -5,-5 69,-94 151,-182 114,-122 288,-416 430,-728 29,-64 22,-73 -59,-69 -39,2 -96,10 -128,18 -32,8 -63,12 -68,8 -19,-11 -1,-64 43,-128 23,-33 82,-121 132,-194 49,-73 155,-215 235,-315 249,-313 491,-634 491,-652 0,-6 -25,-25 -55,-43 -37,-22 -55,-40 -55,-53 0,-19 78,-145 295,-474 120,-183 141,-217 265,-430 82,-141 360,-691 360,-712 0,-22 -22,-25 -88,-10 -228,53 -389,77 -405,61 -3,-3 14,-43 38,-88 36,-68 126,-318 188,-521 67,-223 160,-640 192,-865 9,-63 20,-145 25,-182 16,-111 12,-476 -5,-555 -20,-85 -44,-149 -61,-164 -15,-12 -26,-4 -203,148 -94,80 -179,130 -204,120 -14,-5 -17,-20 -17,-77 0,-88 -22,-183 -85,-360 -30,-83 -95,-242 -128,-308 -13,-26 -17,-46 -11,-51 5,-5 71,-30 148,-55 76,-26 176,-62 222,-81 46,-19 93,-35 104,-35 32,0 186,197 299,381 93,153 201,427 256,653 108,443 113,950 13,1436 -25,121 -72,264 -104,312 -13,21 -24,44 -24,53 0,29 99,14 198,-31 18,-8 37,-12 42,-9 39,24 -28,374 -130,685 -94,285 -251,601 -437,883 -58,87 -103,164 -100,171 5,13 90,26 168,26 21,0 41,5 44,10 14,23 -136,236 -336,476 -65,78 -213,240 -331,359 -263,268 -287,300 -288,375 -1,145 38,345 86,446 45,95 101,156 229,245 285,199 336,239 451,353 161,161 239,291 302,506 21,72 23,400 3,510 -30,167 -114,397 -208,569 -78,144 -142,232 -237,326 -74,73 -109,99 -177,133 -149,73 -254,100 -421,108 -225,11 -381,-24 -564,-127 -121,-68 -272,-226 -523,-548 -87,-112 -197,-209 -300,-268 -123,-70 -188,-95 -256,-100 -71,-5 -76,-4 -495,139 -168,58 -323,109 -345,115 -270,72 -449,113 -635,144 -41,6 -140,12 -220,12 -166,0 -279,-23 -437,-88 -48,-20 -113,-46 -144,-58 l -57,-21 -103,46 c -111,49 -199,78 -317,103 -84,17 -336,21 -423,5 -225,-39 -384,-73 -489,-105 -312,-94 -558,-174 -730,-237 -74,-27 -167,-56 -207,-64 -70,-15 -72,-15 -132,10 -126,53 -284,155 -372,238 -30,29 -123,134 -206,233 -255,305 -336,383 -475,459 -145,80 -253,106 -458,111 -91,2 -176,2 -190,-1 z"
       id="path1" />
    <path
       d="m 9110,16020 c -352,-65 -734,-199 -920,-324 -73,-49 -75,-72 -5,-56 309,71 456,95 870,145 223,27 442,18 620,-27 231,-57 253,-61 345,-61 94,0 113,3 340,64 59,16 119,21 275,26 237,6 369,-4 732,-56 64,-10 334,-64 448,-91 54,-12 64,2 23,33 -48,36 -310,161 -403,192 -344,116 -672,174 -910,162 -132,-7 -206,-26 -385,-101 -165,-69 -176,-69 -326,6 -60,30 -120,57 -134,61 -14,3 -63,15 -110,26 -109,26 -321,27 -460,1 z"
       id="path2" />
    <path
       d="m 9100,15580 c -354,-80 -869,-310 -1111,-496 -85,-65 -169,-144 -169,-159 0,-11 20,-12 95,-8 89,6 97,4 151,-23 l 56,-28 92,48 c 334,175 397,205 641,300 195,76 472,126 694,126 132,0 206,15 275,57 77,47 60,77 -69,121 -78,27 -123,39 -220,63 -105,24 -326,24 -435,-1 z"
       id="path3" />
    <path
       d="m 10550,15595 c -8,-2 -47,-8 -87,-15 -89,-14 -285,-73 -319,-94 -32,-22 -30,-36 10,-75 47,-45 102,-59 294,-71 319,-21 471,-53 762,-163 154,-58 268,-112 418,-199 126,-72 204,-108 237,-108 13,0 40,10 60,21 40,24 123,30 213,16 47,-8 52,-7 52,9 0,22 -33,52 -155,143 -141,105 -277,185 -435,256 -47,21 -114,51 -150,68 -200,91 -453,171 -625,196 -78,12 -252,22 -275,16 z"
       id="path4" />
    <path
       d="m 9836,15051 c -38,-38 -91,-81 -118,-96 l -49,-27 -140,12 c -149,14 -348,9 -439,-10 -318,-65 -531,-171 -721,-360 -115,-115 -175,-210 -231,-372 -29,-84 -15,-92 58,-32 111,90 286,196 414,249 67,28 184,66 280,91 97,25 500,104 530,104 79,0 250,99 338,194 30,33 68,93 96,153 27,54 52,106 57,115 11,22 12,48 1,48 -4,0 -38,-31 -76,-69 z"
       id="path5" />
    <path
       d="m 10104,15067 c -13,-36 110,-232 201,-321 86,-83 154,-108 447,-166 519,-104 826,-227 1024,-411 36,-33 70,-59 77,-56 41,13 -11,161 -106,302 -63,92 -202,231 -292,290 -84,55 -252,140 -345,174 -142,51 -236,66 -420,66 -101,0 -212,-6 -262,-14 -87,-14 -87,-14 -141,12 -29,15 -81,52 -115,83 -47,42 -63,52 -68,41 z"
       id="path6" />
    <path
       d="m 9765,14345 c -77,-78 -156,-149 -175,-158 -26,-11 -86,-17 -230,-21 -187,-5 -275,-16 -395,-50 -227,-64 -403,-188 -507,-358 -58,-94 -72,-153 -72,-298 0,-136 13,-198 60,-294 50,-103 62,-96 84,44 24,155 92,288 205,405 146,150 271,209 595,281 253,56 410,166 507,358 22,42 93,221 93,232 0,19 -45,-19 -165,-141 z"
       id="path7" />
    <path
       d="m 10090,14471 c 0,-14 66,-193 85,-231 29,-58 101,-154 144,-193 85,-77 138,-99 376,-158 260,-64 415,-140 552,-272 120,-115 196,-254 219,-400 9,-50 19,-96 24,-101 12,-12 66,74 83,133 58,190 52,346 -21,486 -78,152 -273,300 -491,372 -143,47 -197,55 -409,60 -192,4 -206,5 -240,27 -57,36 -235,200 -267,245 -25,37 -55,54 -55,32 z"
       id="path8" />
    <path
       d="m 7365,14183 c -49,-25 -137,-101 -182,-155 -81,-99 -165,-286 -220,-488 -23,-88 -23,-364 1,-463 28,-119 23,-153 -34,-236 -27,-39 -69,-98 -93,-129 -267,-347 -430,-864 -431,-1367 -1,-304 43,-489 206,-865 101,-234 271,-472 421,-592 40,-31 57,-38 93,-38 43,0 48,3 142,98 84,84 185,169 248,208 30,18 7,30 -81,43 -98,15 -154,34 -225,79 -75,47 -254,229 -324,329 -85,123 -129,211 -174,353 -37,117 -55,413 -32,532 35,175 66,223 82,128 34,-198 60,-283 126,-415 58,-118 152,-245 262,-356 105,-106 167,-149 215,-149 43,0 132,36 238,98 95,54 168,92 224,113 23,9 30,24 15,33 -5,3 -52,15 -104,26 -158,34 -257,79 -383,175 -124,94 -208,186 -267,295 -92,169 -120,432 -72,670 30,150 91,316 120,327 7,3 38,-17 69,-45 106,-94 190,-124 336,-121 58,1 110,-1 116,-4 7,-4 14,-33 18,-65 23,-208 67,-327 160,-430 103,-114 203,-155 475,-197 164,-26 235,-69 305,-189 76,-129 74,-323 -5,-629 -43,-166 -67,-249 -111,-378 -44,-130 -44,-129 -26,-129 28,2 157,191 235,346 49,98 125,287 157,391 13,43 35,116 50,163 68,220 97,362 97,470 1,95 -2,113 -29,175 -62,150 -228,344 -371,434 -131,83 -248,152 -312,183 l -65,32 -270,7 c -359,10 -410,25 -546,159 -65,63 -84,91 -127,180 -85,177 -120,372 -108,615 10,213 39,326 158,600 38,88 70,166 71,174 3,21 -14,22 -48,4 z m 670,-1853 c 3,-5 13,-36 21,-67 20,-77 66,-147 128,-193 109,-81 173,-77 264,16 29,30 59,54 67,54 7,0 36,-22 64,-49 53,-51 77,-109 65,-155 -12,-48 -82,-114 -162,-153 -74,-36 -81,-38 -182,-38 -94,0 -111,3 -164,28 -240,112 -360,415 -213,539 33,28 99,39 112,18 z"
       id="path9" />
    <path
       d="m 12550,14169 c 0,-11 22,-62 49,-112 78,-144 144,-325 175,-479 21,-104 21,-354 0,-478 -46,-269 -185,-517 -323,-576 -121,-52 -198,-64 -461,-73 l -235,-7 -75,-36 c -121,-56 -367,-223 -440,-297 -123,-124 -209,-266 -231,-379 -15,-80 -6,-232 20,-327 29,-106 177,-545 222,-659 83,-209 247,-481 275,-454 3,4 -9,53 -26,110 -116,380 -150,553 -151,753 0,72 3,144 7,160 21,88 96,185 174,225 22,11 86,28 142,36 320,50 416,93 531,236 64,81 117,248 117,371 0,65 13,76 100,82 150,12 186,25 317,112 46,30 88,51 93,48 16,-10 54,-101 95,-223 62,-183 70,-232 70,-402 0,-145 -2,-160 -29,-235 -67,-188 -153,-304 -310,-419 -88,-65 -164,-108 -236,-135 -53,-19 -183,-47 -245,-53 -40,-4 -38,-19 4,-38 35,-16 195,-96 322,-163 97,-50 152,-57 213,-28 58,28 220,181 284,269 103,139 185,337 232,564 12,57 24,106 27,111 20,32 36,-38 59,-253 18,-165 13,-254 -23,-415 -42,-188 -158,-387 -332,-568 -160,-167 -285,-241 -430,-255 -35,-4 -66,-12 -68,-19 -2,-6 20,-27 49,-46 29,-19 107,-82 172,-141 151,-135 164,-143 214,-119 46,22 201,177 277,279 197,261 339,589 406,939 21,105 18,424 -4,550 -39,216 -106,447 -187,639 -85,202 -150,315 -302,522 -52,71 -98,138 -102,149 -3,11 3,74 14,140 45,277 17,499 -95,742 -60,131 -126,216 -230,299 -96,76 -125,89 -125,53 z m -514,-1840 c 88,-23 122,-112 90,-239 -43,-166 -177,-293 -354,-335 -91,-22 -167,-16 -247,19 -133,59 -193,167 -150,269 16,39 78,107 98,107 7,0 31,-22 54,-49 70,-81 137,-99 222,-61 103,47 167,127 178,221 9,83 21,90 109,68 z"
       id="path10" />
    <path
       d="m 9840,13737 c -56,-65 -146,-125 -280,-189 -333,-158 -409,-207 -486,-310 -141,-189 -157,-371 -51,-551 29,-49 197,-251 203,-244 2,2 -1,28 -7,58 -15,70 -6,270 15,329 56,157 140,262 409,513 128,119 168,171 195,252 11,33 29,84 41,113 20,49 21,73 3,71 -4,0 -23,-19 -42,-42 z"
       id="path11" />
    <path
       d="m 10110,13748 c 0,-19 52,-160 73,-198 39,-70 93,-131 258,-290 225,-215 273,-280 323,-434 21,-65 22,-254 1,-322 -28,-94 -6,-75 169,145 15,20 45,70 65,111 32,68 36,85 39,172 3,73 -1,111 -14,150 -49,152 -176,265 -428,383 -174,81 -226,105 -232,105 -15,0 -117,75 -176,129 -68,63 -78,69 -78,49 z"
       id="path12" />
    <path
       d="m 7838,13531 c -38,-44 -97,-157 -121,-231 -64,-196 -41,-347 71,-459 65,-65 109,-86 345,-165 109,-37 243,-89 297,-116 55,-28 102,-50 105,-50 3,0 5,7 5,17 0,9 -58,73 -128,142 -152,149 -211,220 -305,361 -111,168 -167,295 -197,447 -7,35 -18,70 -25,79 -10,14 -16,11 -47,-25 z"
       id="path13" />
    <path
       d="m 12087,13563 c -2,-5 -10,-33 -16,-63 -64,-289 -183,-494 -421,-726 -153,-150 -246,-264 -215,-264 2,0 44,19 92,43 104,51 132,61 328,122 255,80 349,136 413,244 26,44 27,53 26,171 -1,109 -4,134 -27,196 -33,87 -78,173 -124,237 -34,45 -47,55 -56,40 z"
       id="path14" />
    <path
       d="m 6511,13114 c -94,-89 -155,-173 -253,-344 -52,-92 -123,-239 -139,-290 -4,-14 -19,-56 -34,-95 -32,-84 -82,-272 -102,-375 -20,-109 -42,-403 -43,-565 -1,-186 -15,-369 -55,-725 -49,-431 -73,-827 -58,-949 15,-119 44,-178 205,-416 263,-391 379,-545 491,-653 81,-77 67,-77 432,-24 77,11 187,26 245,32 162,18 146,7 159,107 34,267 78,435 170,644 69,157 217,403 391,649 134,189 144,206 130,215 -32,20 -267,-208 -500,-485 -144,-171 -199,-254 -279,-415 -40,-80 -77,-145 -82,-145 -18,0 -52,21 -189,119 -74,53 -145,103 -157,111 -175,121 -405,294 -523,394 l -92,78 5,42 c 2,22 10,84 17,137 19,144 5,260 -75,624 -32,146 -55,263 -67,345 -18,115 -17,539 0,645 18,107 42,223 53,260 5,17 32,109 60,205 53,180 60,201 111,330 41,103 194,407 257,510 28,46 50,91 49,100 -7,34 -39,18 -127,-66 z"
       id="path15" />
    <path
       d="m 13350,13185 c 0,-26 25,-78 98,-202 192,-328 272,-519 362,-868 46,-181 57,-234 75,-390 32,-264 10,-549 -74,-955 -16,-80 -37,-185 -46,-235 -9,-49 -20,-112 -26,-138 -12,-64 -11,-222 2,-308 15,-98 1,-122 -136,-233 -159,-128 -222,-173 -500,-362 -269,-182 -298,-200 -313,-190 -5,3 -32,52 -60,108 -63,127 -160,274 -257,387 -92,108 -487,501 -503,501 -48,0 -30,-32 139,-250 316,-408 459,-721 494,-1080 7,-78 24,-207 30,-236 5,-20 13,-22 137,-29 132,-7 309,-28 505,-62 l 101,-17 44,39 c 107,97 282,323 533,689 181,264 214,356 201,564 -14,225 -40,528 -55,632 -6,36 -17,135 -26,220 -9,85 -21,189 -27,230 -6,41 -12,224 -14,405 -5,495 -21,612 -119,910 -100,301 -209,516 -361,712 -100,128 -204,209 -204,158 z"
       id="path16" />
    <path
       d="m 7463,11844 c -36,-28 -40,-51 -22,-119 33,-129 129,-241 259,-303 107,-51 265,-92 353,-92 98,0 89,21 -27,65 -101,38 -144,62 -217,121 -79,63 -133,125 -223,257 -37,53 -73,97 -79,97 -7,0 -27,-12 -44,-26 z"
       id="path17" />
    <path
       d="m 12430,11820 c -135,-226 -238,-327 -403,-397 -92,-39 -147,-70 -147,-84 0,-15 78,-10 190,11 138,26 289,99 368,179 68,68 112,158 115,235 2,64 -11,84 -64,92 -32,5 -36,3 -59,-36 z"
       id="path18" />
    <path
       d="m 8872,9358 c -66,-127 -53,-285 32,-413 75,-113 144,-173 459,-399 85,-62 120,-94 164,-155 114,-153 133,-178 213,-266 44,-49 92,-114 106,-144 23,-48 25,-64 22,-140 -5,-104 -26,-153 -103,-238 -114,-127 -401,-293 -660,-383 -161,-55 -224,-65 -430,-64 -198,0 -280,11 -425,56 -96,30 -131,37 -147,31 -27,-10 -272,-350 -338,-468 -41,-74 -75,-170 -75,-214 0,-48 47,-212 89,-311 145,-340 361,-601 696,-841 50,-36 155,-109 235,-164 526,-358 726,-533 887,-775 101,-151 190,-342 247,-530 15,-47 31,-98 36,-115 8,-29 59,-228 79,-310 5,-22 13,-64 17,-93 12,-96 35,-76 58,53 66,354 142,611 240,810 100,202 170,300 330,461 169,169 270,247 614,477 321,215 406,280 547,422 234,234 393,506 472,807 25,97 26,111 15,153 -30,111 -126,277 -284,487 -61,81 -116,148 -122,148 -6,0 -56,-11 -111,-24 -216,-52 -264,-59 -435,-58 -221,0 -375,34 -573,126 -43,20 -80,36 -82,36 -2,0 -57,30 -122,66 -343,192 -450,331 -399,519 22,83 53,131 148,233 49,53 117,138 149,187 64,97 162,189 369,348 294,226 403,398 371,589 -12,75 -32,118 -54,118 -6,0 -38,-42 -69,-93 -32,-51 -66,-101 -77,-111 -19,-17 -22,-17 -78,10 -135,64 -295,82 -410,45 -33,-11 -93,-33 -134,-51 -169,-73 -283,-91 -444,-71 -95,11 -123,20 -302,95 -96,39 -122,46 -181,46 -76,0 -142,-17 -237,-61 -35,-16 -72,-29 -84,-29 -26,0 -60,36 -127,138 -30,45 -61,82 -68,82 -7,0 -18,-10 -24,-22 z m 693,-240 c 201,-82 188,-80 425,-81 l 215,-1 85,31 c 47,17 119,43 160,58 133,49 256,44 372,-14 41,-20 54,-33 56,-52 5,-45 -36,-73 -142,-97 -216,-48 -320,-117 -385,-255 -44,-95 -45,-98 -76,-280 -23,-136 -48,-202 -89,-236 -9,-8 -44,-16 -79,-18 -57,-5 -66,-3 -85,18 -12,12 -22,29 -22,36 0,24 -25,13 -45,-20 -15,-24 -29,-33 -54,-35 -41,-4 -135,40 -158,74 -10,17 -20,72 -29,167 -15,164 -25,212 -60,281 -77,153 -149,200 -447,292 -106,32 -123,51 -82,95 26,26 133,72 195,83 59,10 148,-6 245,-46 z m 618,-1783 c 65,-17 129,-50 261,-137 125,-81 334,-183 438,-212 124,-36 267,-49 438,-41 80,3 153,9 162,11 9,3 27,-5 39,-17 20,-20 21,-28 16,-123 -6,-112 -34,-252 -74,-376 -42,-132 -153,-296 -259,-386 -135,-113 -350,-231 -577,-316 -50,-19 -55,1 -23,98 42,129 33,130 -122,16 -74,-53 -173,-101 -287,-138 -83,-26 -303,-27 -390,0 -87,26 -211,90 -305,158 -46,33 -89,57 -96,54 -14,-5 -9,-64 12,-136 17,-56 7,-67 -43,-52 -21,6 -63,18 -93,27 -82,25 -263,115 -365,182 -236,156 -360,331 -439,617 -52,188 -72,297 -60,343 l 9,38 h 260 c 233,1 270,3 352,23 169,40 261,82 497,225 169,102 243,138 301,148 79,13 289,10 348,-6 z"
       id="path19" />
    <path
       d="m 12054,9091 7,-99 -38,-29 c -67,-52 -229,-139 -605,-325 -203,-100 -368,-185 -368,-190 0,-13 42,-9 194,17 187,32 359,89 515,171 151,79 225,128 351,232 93,76 95,78 98,125 4,61 -37,140 -90,173 -68,43 -72,38 -64,-75 z"
       id="path20" />
    <path
       d="m 7871,9169 c -13,-5 -30,-17 -38,-27 -26,-33 -53,-105 -53,-140 0,-31 9,-45 68,-102 89,-87 242,-187 432,-282 159,-80 221,-99 563,-178 87,-20 122,-21 105,-5 -4,4 -204,112 -398,215 -19,10 -118,59 -220,108 -202,99 -358,194 -387,238 -18,29 -23,104 -9,158 5,22 3,26 -16,25 -13,0 -34,-5 -47,-10 z"
       id="path21" />
    <path
       d="m 7643,8650 c -31,-12 -46,-46 -39,-85 13,-66 146,-159 368,-257 62,-27 137,-60 167,-74 120,-57 255,-79 574,-94 274,-12 317,-12 317,-2 0,10 -77,50 -122,63 -113,33 -184,49 -268,58 -52,6 -138,17 -190,25 -52,9 -113,18 -135,22 -49,7 -100,29 -141,60 -41,30 -186,115 -294,171 -47,25 -101,57 -120,72 -64,51 -80,56 -117,41 z"
       id="path22" />
    <path
       d="m 12280,8632 c -30,-16 -93,-50 -139,-76 -46,-26 -172,-92 -280,-146 -199,-100 -228,-110 -386,-130 -296,-36 -577,-112 -543,-145 10,-10 621,16 698,29 104,19 266,81 452,173 261,130 303,162 315,238 6,40 -17,85 -45,85 -9,0 -42,-13 -72,-28 z"
       id="path23" />
    <path
       d="m 7145,8579 c -27,-5 -93,-16 -145,-25 -176,-29 -282,-52 -292,-62 -8,-8 20,-44 91,-120 56,-60 111,-114 124,-121 17,-9 37,-9 92,4 39,8 126,26 194,40 68,14 131,30 141,35 17,9 18,21 13,122 -2,62 -6,119 -9,126 -4,14 -130,15 -209,1 z"
       id="path24" />
    <path
       d="m 12631,8573 c -5,-10 -12,-54 -16,-98 -4,-44 -14,-95 -23,-113 -8,-19 -11,-37 -6,-41 5,-4 43,-13 84,-19 41,-7 111,-19 155,-27 44,-8 113,-15 153,-15 h 73 l 92,89 c 51,49 100,103 110,120 17,29 17,30 0,39 -20,10 -105,25 -273,48 -63,8 -145,19 -182,25 -105,14 -156,12 -167,-8 z"
       id="path25" />
    <path
       d="m 13786,8353 c -40,-44 -168,-252 -163,-266 3,-7 36,-19 73,-26 164,-32 306,-76 454,-140 52,-22 102,-41 111,-41 9,0 36,14 60,31 66,48 220,202 217,217 -5,22 -137,72 -363,137 -61,17 -331,103 -351,111 -6,3 -23,-8 -38,-23 z"
       id="path26" />
    <path
       d="m 6040,8340 c -214,-59 -598,-194 -623,-219 -9,-9 58,-92 166,-204 34,-36 41,-39 78,-34 22,3 68,17 102,31 104,42 229,78 520,148 22,5 37,15 37,23 0,8 -4,15 -8,15 -10,0 -67,94 -112,184 -41,82 -51,86 -160,56 z"
       id="path27" />
    <path
       d="m 7285,8179 c -91,-19 -209,-56 -212,-66 -9,-27 231,-28 307,-2 35,13 38,27 10,57 -22,23 -40,25 -105,11 z"
       id="path28" />
    <path
       d="m 12522,8169 c -17,-6 -22,-15 -20,-31 3,-26 7,-27 223,-48 137,-13 200,-11 199,5 0,6 -11,12 -25,16 -13,3 -40,12 -59,21 -30,13 -73,20 -265,42 -16,2 -40,0 -53,-5 z"
       id="path29" />
    <path
       d="m 7645,8130 c -12,-19 27,-111 60,-144 64,-64 287,-127 554,-156 120,-14 339,-10 596,10 77,6 190,14 250,18 121,8 149,26 45,29 -36,1 -132,9 -215,17 -82,8 -208,20 -280,26 -251,23 -529,79 -761,155 -150,49 -237,65 -249,45 z"
       id="path30" />
    <path
       d="m 12235,8110 c -11,-5 -72,-21 -135,-35 -63,-15 -187,-44 -275,-66 -283,-68 -371,-79 -967,-116 -49,-3 -88,-10 -88,-14 0,-5 3,-9 8,-10 86,-6 241,-21 367,-35 372,-41 744,-12 995,77 97,34 204,130 198,177 -3,24 -8,27 -43,29 -22,1 -49,-2 -60,-7 z"
       id="path31" />
    <path
       d="m 7302,7980 c -171,-37 -266,-76 -421,-169 -46,-28 -93,-51 -104,-51 -11,0 -36,-5 -56,-11 -57,-17 -108,11 -143,79 -38,76 -105,152 -133,152 -12,0 -51,-9 -86,-21 -35,-11 -113,-33 -174,-49 -154,-41 -178,-48 -277,-82 -88,-30 -115,-48 -103,-67 19,-32 522,-350 612,-388 62,-25 77,-21 233,63 30,17 80,41 110,53 30,13 141,65 245,116 215,105 341,164 468,220 48,22 87,44 87,51 0,6 -17,37 -37,68 l -37,56 -51,-1 c -27,-1 -87,-9 -133,-19 z"
       id="path32" />
    <path
       d="m 12462,7988 c -7,-7 -12,-18 -12,-25 0,-7 -11,-36 -25,-65 -14,-28 -25,-57 -25,-64 0,-19 84,-70 163,-100 64,-24 169,-73 514,-240 50,-25 117,-51 148,-59 30,-8 79,-31 108,-50 87,-59 112,-52 342,95 72,45 175,110 230,143 120,72 204,136 205,157 0,10 -26,28 -69,48 -103,47 -179,70 -351,108 -85,19 -167,39 -182,45 -39,16 -77,-15 -133,-109 -59,-96 -82,-122 -112,-122 -13,0 -81,25 -150,55 -68,31 -159,69 -201,86 -43,16 -86,33 -97,38 -70,30 -111,41 -200,55 -121,19 -137,20 -153,4 z"
       id="path33" />
    <path
       d="m 7435,7654 c -66,-30 -140,-64 -165,-75 -40,-19 -350,-185 -437,-235 -18,-11 -33,-25 -33,-32 0,-20 106,-119 210,-195 120,-88 343,-313 389,-393 57,-98 62,-105 71,-99 4,3 25,34 45,70 83,149 160,256 349,484 47,58 86,113 86,124 0,11 -45,66 -100,124 -56,58 -131,145 -167,194 -81,109 -81,109 -248,33 z"
       id="path34" />
    <path
       d="m 9128,7695 c -10,-10 -211,-43 -438,-70 -216,-27 -463,-15 -709,35 -153,31 -166,16 -56,-63 257,-185 548,-215 900,-95 152,52 324,153 325,191 0,8 -14,10 -22,2 z"
       id="path35" />
    <path
       d="m 10796,7682 c -8,-13 3,-21 94,-70 91,-50 265,-123 340,-144 160,-45 383,-53 512,-19 165,43 405,188 371,222 -9,9 -23,9 -55,1 -74,-20 -170,-40 -253,-54 -100,-16 -371,-16 -490,0 -49,7 -139,20 -200,28 -60,8 -132,19 -160,24 -97,18 -152,22 -159,12 z"
       id="path36" />
    <path
       d="m 12290,7671 c 0,-6 -21,-36 -47,-68 -27,-32 -64,-79 -83,-103 -19,-25 -63,-78 -97,-117 -35,-40 -63,-79 -63,-86 0,-19 42,-78 155,-217 113,-139 190,-248 254,-357 23,-40 46,-73 51,-73 5,0 35,39 67,88 67,100 191,228 383,393 164,142 194,173 187,193 -4,9 -13,16 -20,16 -8,0 -92,38 -188,83 -96,46 -190,91 -209,99 -97,44 -170,78 -220,102 -100,49 -170,68 -170,47 z"
       id="path37" />
  </g>
</svg>
