  0
SECTION
  2
HEADER
  9
$ACADVER
  1
AC1009
  0
ENDSEC
  0
SECTION
  2
ENTITIES
  0
CIRCLE
  5
90
  8
Layer_0
  62
0
  10
-197.48477
  20
185.14186
  30
0
  40
3.6500001
  0
CIRCLE
  5
90
  8
Layer_0
  62
0
  10
-197.48477
  20
185.14186
  30
0
  40
6.1500001
  0
CIRCLE
  5
90
  8
Layer_0
  62
0
  10
-247.98477
  20
185.14186
  30
0
  40
3.6500001
  0
CIRCLE
  5
90
  8
Layer_0
  62
0
  10
-247.98477
  20
185.14186
  30
0
  40
6.1500001
  0
CIRCLE
  5
90
  8
Layer_0
  62
0
  10
-146.98477
  20
185.14186
  30
0
  40
3.6500001
  0
CIRCLE
  5
90
  8
Layer_0
  62
0
  10
-146.98477
  20
185.14186
  30
0
  40
6.1500001
  0
CIRCLE
  5
90
  8
Layer_0
  62
0
  10
-146.98477
  20
285.14185
  30
0
  40
2.5999999
  0
CIRCLE
  5
90
  8
Layer_0
  62
0
  10
-146.98477
  20
285.14185
  30
0
  40
4.5999999
  0
CIRCLE
  5
90
  8
Layer_0
  62
0
  10
-197.48477
  20
285.14185
  30
0
  40
2.5999999
  0
CIRCLE
  5
90
  8
Layer_0
  62
0
  10
-197.48477
  20
285.14185
  30
0
  40
4.5999999
  0
CIRCLE
  5
90
  8
Layer_0
  62
0
  10
-247.98477
  20
285.14185
  30
0
  40
2.5999999
  0
CIRCLE
  5
90
  8
Layer_0
  62
0
  10
-247.98477
  20
285.14185
  30
0
  40
4.5999999
  0
POLYLINE
  5
90
  8
Layer_0
  62
0
  66
1
  10
0
  20
0
  30
0
  0
VERTEX
  5
90
  8
Layer_0
  10
-259.98477
  20
182.64188
  0
VERTEX
  5
91
  8
Layer_0
  10
-259.97177
  20
182.12729
  0
VERTEX
  5
92
  8
Layer_0
  10
-259.93314
  20
181.61945
  0
VERTEX
  5
93
  8
Layer_0
  10
-259.8696
  20
181.11899
  0
VERTEX
  5
94
  8
Layer_0
  10
-259.78159
  20
180.62653
  0
VERTEX
  5
95
  8
Layer_0
  10
-259.53513
  20
179.66818
  0
VERTEX
  5
96
  8
Layer_0
  10
-259.19894
  20
178.74944
  0
VERTEX
  5
97
  8
Layer_0
  10
-258.7778
  20
177.87529
  0
VERTEX
  5
98
  8
Layer_0
  10
-258.27695
  20
177.05078
  0
VERTEX
  5
99
  8
Layer_0
  10
-257.70126
  20
176.28094
  0
VERTEX
  5
9a
  8
Layer_0
  10
-257.05582
  20
175.57082
  0
VERTEX
  5
9b
  8
Layer_0
  10
-256.34561
  20
174.92538
  0
VERTEX
  5
9c
  8
Layer_0
  10
-255.57578
  20
174.34972
  0
VERTEX
  5
9d
  8
Layer_0
  10
-254.75131
  20
173.84882
  0
VERTEX
  5
9e
  8
Layer_0
  10
-253.87717
  20
173.42772
  0
VERTEX
  5
9f
  8
Layer_0
  10
-252.95847
  20
173.09145
  0
VERTEX
  5
a0
  8
Layer_0
  10
-252.00009
  20
172.84503
  0
VERTEX
  5
a1
  8
Layer_0
  10
-251.50766
  20
172.75708
  0
VERTEX
  5
a2
  8
Layer_0
  10
-251.00723
  20
172.6935
  0
VERTEX
  5
a3
  8
Layer_0
  10
-250.49936
  20
172.65488
  0
VERTEX
  5
a4
  8
Layer_0
  10
-249.98477
  20
172.64188
  0
SEQEND
  0
POLYLINE
  5
a6
  8
Layer_0
  62
0
  66
1
  10
0
  20
0
  30
0
  0
VERTEX
  5
a6
  8
Layer_0
  10
-249.98477
  20
297.64188
  0
VERTEX
  5
a7
  8
Layer_0
  10
-250.49936
  20
297.62888
  0
VERTEX
  5
a8
  8
Layer_0
  10
-251.00723
  20
297.59024
  0
VERTEX
  5
a9
  8
Layer_0
  10
-251.50766
  20
297.52664
  0
VERTEX
  5
aa
  8
Layer_0
  10
-252.00009
  20
297.43872
  0
VERTEX
  5
ab
  8
Layer_0
  10
-252.95847
  20
297.19229
  0
VERTEX
  5
ac
  8
Layer_0
  10
-253.87717
  20
296.85602
  0
VERTEX
  5
ad
  8
Layer_0
  10
-254.75131
  20
296.43494
  0
VERTEX
  5
ae
  8
Layer_0
  10
-255.57578
  20
295.93402
  0
VERTEX
  5
af
  8
Layer_0
  10
-256.34561
  20
295.35837
  0
VERTEX
  5
b0
  8
Layer_0
  10
-257.05582
  20
294.71295
  0
VERTEX
  5
b1
  8
Layer_0
  10
-257.70126
  20
294.00281
  0
VERTEX
  5
b2
  8
Layer_0
  10
-258.27695
  20
293.23297
  0
VERTEX
  5
b3
  8
Layer_0
  10
-258.7778
  20
292.40848
  0
VERTEX
  5
b4
  8
Layer_0
  10
-259.19894
  20
291.53433
  0
VERTEX
  5
b5
  8
Layer_0
  10
-259.53513
  20
290.61557
  0
VERTEX
  5
b6
  8
Layer_0
  10
-259.78159
  20
289.65723
  0
VERTEX
  5
b7
  8
Layer_0
  10
-259.8696
  20
289.16479
  0
VERTEX
  5
b8
  8
Layer_0
  10
-259.93314
  20
288.66431
  0
VERTEX
  5
b9
  8
Layer_0
  10
-259.97177
  20
288.15646
  0
VERTEX
  5
ba
  8
Layer_0
  10
-259.98477
  20
287.64188
  0
SEQEND
  0
POLYLINE
  5
bc
  8
Layer_0
  62
0
  66
1
  10
0
  20
0
  30
0
  0
VERTEX
  5
bc
  8
Layer_0
  10
-134.98477
  20
287.64188
  0
VERTEX
  5
bd
  8
Layer_0
  10
-134.99777
  20
288.15646
  0
VERTEX
  5
be
  8
Layer_0
  10
-135.03641
  20
288.66431
  0
VERTEX
  5
bf
  8
Layer_0
  10
-135.09995
  20
289.16479
  0
VERTEX
  5
c0
  8
Layer_0
  10
-135.18796
  20
289.65723
  0
VERTEX
  5
c1
  8
Layer_0
  10
-135.43442
  20
290.61557
  0
VERTEX
  5
c2
  8
Layer_0
  10
-135.7706
  20
291.53433
  0
VERTEX
  5
c3
  8
Layer_0
  10
-136.19174
  20
292.40848
  0
VERTEX
  5
c4
  8
Layer_0
  10
-136.6926
  20
293.23297
  0
VERTEX
  5
c5
  8
Layer_0
  10
-137.26828
  20
294.00281
  0
VERTEX
  5
c6
  8
Layer_0
  10
-137.91373
  20
294.71295
  0
VERTEX
  5
c7
  8
Layer_0
  10
-138.62393
  20
295.35837
  0
VERTEX
  5
c8
  8
Layer_0
  10
-139.39377
  20
295.93402
  0
VERTEX
  5
c9
  8
Layer_0
  10
-140.21823
  20
296.43494
  0
VERTEX
  5
ca
  8
Layer_0
  10
-141.09238
  20
296.85602
  0
VERTEX
  5
cb
  8
Layer_0
  10
-142.01108
  20
297.19229
  0
VERTEX
  5
cc
  8
Layer_0
  10
-142.96945
  20
297.43872
  0
VERTEX
  5
cd
  8
Layer_0
  10
-143.46188
  20
297.52664
  0
VERTEX
  5
ce
  8
Layer_0
  10
-143.96231
  20
297.59024
  0
VERTEX
  5
cf
  8
Layer_0
  10
-144.47018
  20
297.62888
  0
VERTEX
  5
d0
  8
Layer_0
  10
-144.98477
  20
297.64188
  0
SEQEND
  0
POLYLINE
  5
d2
  8
Layer_0
  62
0
  66
1
  10
0
  20
0
  30
0
  0
VERTEX
  5
d2
  8
Layer_0
  10
-144.98477
  20
172.64188
  0
VERTEX
  5
d3
  8
Layer_0
  10
-144.47018
  20
172.65488
  0
VERTEX
  5
d4
  8
Layer_0
  10
-143.96231
  20
172.6935
  0
VERTEX
  5
d5
  8
Layer_0
  10
-143.46188
  20
172.75708
  0
VERTEX
  5
d6
  8
Layer_0
  10
-142.96945
  20
172.84503
  0
VERTEX
  5
d7
  8
Layer_0
  10
-142.01108
  20
173.09145
  0
VERTEX
  5
d8
  8
Layer_0
  10
-141.09238
  20
173.42772
  0
VERTEX
  5
d9
  8
Layer_0
  10
-140.21823
  20
173.84882
  0
VERTEX
  5
da
  8
Layer_0
  10
-139.39377
  20
174.34972
  0
VERTEX
  5
db
  8
Layer_0
  10
-138.62393
  20
174.92538
  0
VERTEX
  5
dc
  8
Layer_0
  10
-137.91373
  20
175.57082
  0
VERTEX
  5
dd
  8
Layer_0
  10
-137.26828
  20
176.28094
  0
VERTEX
  5
de
  8
Layer_0
  10
-136.6926
  20
177.05078
  0
VERTEX
  5
df
  8
Layer_0
  10
-136.19174
  20
177.87529
  0
VERTEX
  5
e0
  8
Layer_0
  10
-135.7706
  20
178.74944
  0
VERTEX
  5
e1
  8
Layer_0
  10
-135.43442
  20
179.66818
  0
VERTEX
  5
e2
  8
Layer_0
  10
-135.18796
  20
180.62653
  0
VERTEX
  5
e3
  8
Layer_0
  10
-135.09995
  20
181.11899
  0
VERTEX
  5
e4
  8
Layer_0
  10
-135.03641
  20
181.61945
  0
VERTEX
  5
e5
  8
Layer_0
  10
-134.99777
  20
182.12729
  0
VERTEX
  5
e6
  8
Layer_0
  10
-134.98477
  20
182.64188
  0
SEQEND
  0
POLYLINE
  5
e8
  8
Layer_0
  62
0
  66
1
  10
0
  20
0
  30
0
  0
VERTEX
  5
e8
  8
Layer_0
  10
-144.98477
  20
172.64188
  0
VERTEX
  5
e9
  8
Layer_0
  10
-249.98477
  20
172.64188
  0
SEQEND
  0
POLYLINE
  5
eb
  8
Layer_0
  62
0
  66
1
  10
0
  20
0
  30
0
  0
VERTEX
  5
eb
  8
Layer_0
  10
-249.98477
  20
297.64188
  0
VERTEX
  5
ec
  8
Layer_0
  10
-144.98477
  20
297.64188
  0
SEQEND
  0
POLYLINE
  5
ee
  8
Layer_0
  62
0
  66
1
  10
0
  20
0
  30
0
  0
VERTEX
  5
ee
  8
Layer_0
  10
-259.98477
  20
182.64188
  0
VERTEX
  5
ef
  8
Layer_0
  10
-259.98477
  20
287.64188
  0
SEQEND
  0
POLYLINE
  5
f1
  8
Layer_0
  62
0
  66
1
  10
0
  20
0
  30
0
  0
VERTEX
  5
f1
  8
Layer_0
  10
-134.98477
  20
287.64188
  0
VERTEX
  5
f2
  8
Layer_0
  10
-134.98477
  20
182.64188
  0
SEQEND
  0
CIRCLE
  5
f4
  8
Layer_0
  62
0
  10
-207.48477
  20
275.14185
  30
0
  40
2.5999999
  0
CIRCLE
  5
f4
  8
Layer_0
  62
0
  10
-197.48477
  20
265.14185
  30
0
  40
2.5999999
  0
CIRCLE
  5
f4
  8
Layer_0
  62
0
  10
-187.48477
  20
275.14185
  30
0
  40
2.5999999
  0
CIRCLE
  5
f4
  8
Layer_0
  62
0
  10
-164.98477
  20
275.14185
  30
0
  40
2.5999999
  0
CIRCLE
  5
f4
  8
Layer_0
  62
0
  10
-167.48477
  20
285.14185
  30
0
  40
2.5999999
  0
CIRCLE
  5
f4
  8
Layer_0
  62
0
  10
-167.48477
  20
265.14185
  30
0
  40
2.5999999
  0
CIRCLE
  5
f4
  8
Layer_0
  62
0
  10
-167.48477
  20
245.14186
  30
0
  40
2.5999999
  0
CIRCLE
  5
f4
  8
Layer_0
  62
0
  10
-167.48477
  20
235.14186
  30
0
  40
2.5999999
  0
CIRCLE
  5
f4
  8
Layer_0
  62
0
  10
-167.48477
  20
225.14186
  30
0
  40
2.5999999
  0
CIRCLE
  5
f4
  8
Layer_0
  62
0
  10
-164.98477
  20
195.14186
  30
0
  40
2.5999999
  0
CIRCLE
  5
f4
  8
Layer_0
  62
0
  10
-167.48477
  20
205.14186
  30
0
  40
2.5999999
  0
CIRCLE
  5
f4
  8
Layer_0
  62
0
  10
-167.48477
  20
185.14186
  30
0
  40
2.5999999
  0
CIRCLE
  5
f4
  8
Layer_0
  62
0
  10
-187.48477
  20
195.14186
  30
0
  40
2.5999999
  0
CIRCLE
  5
f4
  8
Layer_0
  62
0
  10
-197.48477
  20
205.14186
  30
0
  40
2.5999999
  0
CIRCLE
  5
f4
  8
Layer_0
  62
0
  10
-207.48477
  20
195.14186
  30
0
  40
2.5999999
  0
CIRCLE
  5
f4
  8
Layer_0
  62
0
  10
-227.48477
  20
185.14186
  30
0
  40
2.5999999
  0
CIRCLE
  5
f4
  8
Layer_0
  62
0
  10
-229.98477
  20
195.14186
  30
0
  40
2.5999999
  0
CIRCLE
  5
f4
  8
Layer_0
  62
0
  10
-227.48477
  20
205.14186
  30
0
  40
2.5999999
  0
CIRCLE
  5
f4
  8
Layer_0
  62
0
  10
-227.48477
  20
285.14185
  30
0
  40
2.5999999
  0
CIRCLE
  5
f4
  8
Layer_0
  62
0
  10
-229.98477
  20
275.14185
  30
0
  40
2.5999999
  0
CIRCLE
  5
f4
  8
Layer_0
  62
0
  10
-227.48477
  20
265.14185
  30
0
  40
2.5999999
  0
CIRCLE
  5
f4
  8
Layer_0
  62
0
  10
-227.48477
  20
245.14186
  30
0
  40
2.5999999
  0
CIRCLE
  5
f4
  8
Layer_0
  62
0
  10
-227.48477
  20
225.14186
  30
0
  40
2.5999999
  0
CIRCLE
  5
f4
  8
Layer_0
  62
0
  10
-227.48477
  20
235.14186
  30
0
  40
2.5999999
  0
CIRCLE
  5
f4
  8
Layer_0
  62
0
  10
-146.98477
  20
265.14185
  30
0
  40
2.0669999
  0
CIRCLE
  5
f4
  8
Layer_0
  62
0
  10
-247.98477
  20
205.14186
  30
0
  40
2.0669999
  0
CIRCLE
  5
f4
  8
Layer_0
  62
0
  10
-247.98477
  20
265.14185
  30
0
  40
2.0669999
  0
CIRCLE
  5
f4
  8
Layer_0
  62
0
  10
-146.98477
  20
205.14186
  30
0
  40
2.0669999
  0
POLYLINE
  5
f4
  8
Layer_0
  62
0
  66
1
  10
0
  20
0
  30
0
  0
VERTEX
  5
f4
  8
Layer_0
  10
-144.52274
  20
264.70776
  0
VERTEX
  5
f5
  8
Layer_0
  10
-144.49106
  20
264.96173
  0
VERTEX
  5
f6
  8
Layer_0
  10
-144.48532
  20
265.21277
  0
VERTEX
  5
f7
  8
Layer_0
  10
-144.50436
  20
265.45941
  0
VERTEX
  5
f8
  8
Layer_0
  10
-144.54721
  20
265.7002
  0
VERTEX
  5
f9
  8
Layer_0
  10
-144.70047
  20
266.15845
  0
VERTEX
  5
fa
  8
Layer_0
  10
-144.93686
  20
266.57581
  0
VERTEX
  5
fb
  8
Layer_0
  10
-145.24814
  20
266.9407
  0
VERTEX
  5
fc
  8
Layer_0
  10
-145.62637
  20
267.24142
  0
VERTEX
  5
fd
  8
Layer_0
  10
-145.83798
  20
267.36411
  0
VERTEX
  5
fe
  8
Layer_0
  10
-146.0632
  20
267.46637
  0
VERTEX
  5
ff
  8
Layer_0
  10
-146.30112
  20
267.54678
  0
VERTEX
  5
100
  8
Layer_0
  10
-146.55063
  20
267.60388
  0
VERTEX
  5
101
  8
Layer_0
  10
-146.80466
  20
267.63556
  0
VERTEX
  5
102
  8
Layer_0
  10
-147.05563
  20
267.64136
  0
VERTEX
  5
103
  8
Layer_0
  10
-147.30234
  20
267.62231
  0
VERTEX
  5
104
  8
Layer_0
  10
-147.54306
  20
267.57941
  0
VERTEX
  5
105
  8
Layer_0
  10
-148.00131
  20
267.42615
  0
VERTEX
  5
106
  8
Layer_0
  10
-148.41867
  20
267.18976
  0
VERTEX
  5
107
  8
Layer_0
  10
-148.78354
  20
266.87839
  0
VERTEX
  5
108
  8
Layer_0
  10
-149.08432
  20
266.50021
  0
VERTEX
  5
109
  8
Layer_0
  10
-149.207
  20
266.2886
  0
VERTEX
  5
10a
  8
Layer_0
  10
-149.3093
  20
266.06335
  0
VERTEX
  5
10b
  8
Layer_0
  10
-149.38968
  20
265.82547
  0
VERTEX
  5
10c
  8
Layer_0
  10
-149.44681
  20
265.57599
  0
VERTEX
  5
10d
  8
Layer_0
  10
-149.47849
  20
265.32202
  0
VERTEX
  5
10e
  8
Layer_0
  10
-149.48422
  20
265.07098
  0
VERTEX
  5
10f
  8
Layer_0
  10
-149.46518
  20
264.82434
  0
VERTEX
  5
110
  8
Layer_0
  10
-149.42233
  20
264.58356
  0
VERTEX
  5
111
  8
Layer_0
  10
-149.26907
  20
264.12531
  0
VERTEX
  5
112
  8
Layer_0
  10
-149.03268
  20
263.70795
  0
VERTEX
  5
113
  8
Layer_0
  10
-148.72141
  20
263.34305
  0
VERTEX
  5
114
  8
Layer_0
  10
-148.34317
  20
263.04233
  0
VERTEX
  5
115
  8
Layer_0
  10
-148.13156
  20
262.91965
  0
VERTEX
  5
116
  8
Layer_0
  10
-147.90634
  20
262.81738
  0
VERTEX
  5
117
  8
Layer_0
  10
-147.66843
  20
262.73697
  0
VERTEX
  5
118
  8
Layer_0
  10
-147.41891
  20
262.67987
  0
SEQEND
  0
POLYLINE
  5
11a
  8
Layer_0
  62
0
  66
1
  10
0
  20
0
  30
0
  0
VERTEX
  5
11a
  8
Layer_0
  10
-245.52274
  20
204.70775
  0
VERTEX
  5
11b
  8
Layer_0
  10
-245.49106
  20
204.96172
  0
VERTEX
  5
11c
  8
Layer_0
  10
-245.48532
  20
205.21275
  0
VERTEX
  5
11d
  8
Layer_0
  10
-245.50436
  20
205.4594
  0
VERTEX
  5
11e
  8
Layer_0
  10
-245.54721
  20
205.7002
  0
VERTEX
  5
11f
  8
Layer_0
  10
-245.70053
  20
206.15843
  0
VERTEX
  5
120
  8
Layer_0
  10
-245.93692
  20
206.57581
  0
VERTEX
  5
121
  8
Layer_0
  10
-246.24826
  20
206.94069
  0
VERTEX
  5
122
  8
Layer_0
  10
-246.62643
  20
207.24144
  0
VERTEX
  5
123
  8
Layer_0
  10
-246.83804
  20
207.36411
  0
VERTEX
  5
124
  8
Layer_0
  10
-247.06332
  20
207.46638
  0
VERTEX
  5
125
  8
Layer_0
  10
-247.30124
  20
207.5468
  0
VERTEX
  5
126
  8
Layer_0
  10
-247.55063
  20
207.6039
  0
VERTEX
  5
127
  8
Layer_0
  10
-247.80466
  20
207.63557
  0
VERTEX
  5
128
  8
Layer_0
  10
-248.05563
  20
207.64137
  0
VERTEX
  5
129
  8
Layer_0
  10
-248.30234
  20
207.62231
  0
VERTEX
  5
12a
  8
Layer_0
  10
-248.54312
  20
207.57941
  0
VERTEX
  5
12b
  8
Layer_0
  10
-249.00131
  20
207.42615
  0
VERTEX
  5
12c
  8
Layer_0
  10
-249.41873
  20
207.18976
  0
VERTEX
  5
12d
  8
Layer_0
  10
-249.7836
  20
206.87839
  0
VERTEX
  5
12e
  8
Layer_0
  10
-250.08432
  20
206.50021
  0
VERTEX
  5
12f
  8
Layer_0
  10
-250.207
  20
206.2886
  0
VERTEX
  5
130
  8
Layer_0
  10
-250.3093
  20
206.06335
  0
VERTEX
  5
131
  8
Layer_0
  10
-250.38968
  20
205.82549
  0
VERTEX
  5
132
  8
Layer_0
  10
-250.44681
  20
205.576
  0
VERTEX
  5
133
  8
Layer_0
  10
-250.47849
  20
205.32204
  0
VERTEX
  5
134
  8
Layer_0
  10
-250.48422
  20
205.071
  0
VERTEX
  5
135
  8
Layer_0
  10
-250.46518
  20
204.82436
  0
VERTEX
  5
136
  8
Layer_0
  10
-250.42233
  20
204.58356
  0
VERTEX
  5
137
  8
Layer_0
  10
-250.26907
  20
204.12532
  0
VERTEX
  5
138
  8
Layer_0
  10
-250.03268
  20
203.70795
  0
VERTEX
  5
139
  8
Layer_0
  10
-249.72141
  20
203.34306
  0
VERTEX
  5
13a
  8
Layer_0
  10
-249.34317
  20
203.04231
  0
VERTEX
  5
13b
  8
Layer_0
  10
-249.13156
  20
202.91965
  0
VERTEX
  5
13c
  8
Layer_0
  10
-248.90634
  20
202.81737
  0
VERTEX
  5
13d
  8
Layer_0
  10
-248.66843
  20
202.73695
  0
VERTEX
  5
13e
  8
Layer_0
  10
-248.41891
  20
202.67986
  0
SEQEND
  0
POLYLINE
  5
140
  8
Layer_0
  62
0
  66
1
  10
0
  20
0
  30
0
  0
VERTEX
  5
140
  8
Layer_0
  10
-245.52274
  20
264.70776
  0
VERTEX
  5
141
  8
Layer_0
  10
-245.49106
  20
264.96173
  0
VERTEX
  5
142
  8
Layer_0
  10
-245.48532
  20
265.21277
  0
VERTEX
  5
143
  8
Layer_0
  10
-245.50436
  20
265.45941
  0
VERTEX
  5
144
  8
Layer_0
  10
-245.54721
  20
265.7002
  0
VERTEX
  5
145
  8
Layer_0
  10
-245.70053
  20
266.15845
  0
VERTEX
  5
146
  8
Layer_0
  10
-245.93692
  20
266.57581
  0
VERTEX
  5
147
  8
Layer_0
  10
-246.24826
  20
266.9407
  0
VERTEX
  5
148
  8
Layer_0
  10
-246.62643
  20
267.24142
  0
VERTEX
  5
149
  8
Layer_0
  10
-246.83804
  20
267.36411
  0
VERTEX
  5
14a
  8
Layer_0
  10
-247.06332
  20
267.46637
  0
VERTEX
  5
14b
  8
Layer_0
  10
-247.30124
  20
267.54678
  0
VERTEX
  5
14c
  8
Layer_0
  10
-247.55063
  20
267.60388
  0
VERTEX
  5
14d
  8
Layer_0
  10
-247.80466
  20
267.63556
  0
VERTEX
  5
14e
  8
Layer_0
  10
-248.05563
  20
267.64136
  0
VERTEX
  5
14f
  8
Layer_0
  10
-248.30234
  20
267.62231
  0
VERTEX
  5
150
  8
Layer_0
  10
-248.54312
  20
267.57941
  0
VERTEX
  5
151
  8
Layer_0
  10
-249.00131
  20
267.42615
  0
VERTEX
  5
152
  8
Layer_0
  10
-249.41873
  20
267.18976
  0
VERTEX
  5
153
  8
Layer_0
  10
-249.7836
  20
266.87839
  0
VERTEX
  5
154
  8
Layer_0
  10
-250.08432
  20
266.50021
  0
VERTEX
  5
155
  8
Layer_0
  10
-250.207
  20
266.2886
  0
VERTEX
  5
156
  8
Layer_0
  10
-250.3093
  20
266.06335
  0
VERTEX
  5
157
  8
Layer_0
  10
-250.38968
  20
265.82547
  0
VERTEX
  5
158
  8
Layer_0
  10
-250.44681
  20
265.57599
  0
VERTEX
  5
159
  8
Layer_0
  10
-250.47849
  20
265.32202
  0
VERTEX
  5
15a
  8
Layer_0
  10
-250.48422
  20
265.07098
  0
VERTEX
  5
15b
  8
Layer_0
  10
-250.46518
  20
264.82434
  0
VERTEX
  5
15c
  8
Layer_0
  10
-250.42233
  20
264.58356
  0
VERTEX
  5
15d
  8
Layer_0
  10
-250.26907
  20
264.12531
  0
VERTEX
  5
15e
  8
Layer_0
  10
-250.03268
  20
263.70795
  0
VERTEX
  5
15f
  8
Layer_0
  10
-249.72141
  20
263.34305
  0
VERTEX
  5
160
  8
Layer_0
  10
-249.34317
  20
263.04233
  0
VERTEX
  5
161
  8
Layer_0
  10
-249.13156
  20
262.91965
  0
VERTEX
  5
162
  8
Layer_0
  10
-248.90634
  20
262.81738
  0
VERTEX
  5
163
  8
Layer_0
  10
-248.66843
  20
262.73697
  0
VERTEX
  5
164
  8
Layer_0
  10
-248.41891
  20
262.67987
  0
SEQEND
  0
POLYLINE
  5
166
  8
Layer_0
  62
0
  66
1
  10
0
  20
0
  30
0
  0
VERTEX
  5
166
  8
Layer_0
  10
-144.52274
  20
204.70775
  0
VERTEX
  5
167
  8
Layer_0
  10
-144.49106
  20
204.96172
  0
VERTEX
  5
168
  8
Layer_0
  10
-144.48532
  20
205.21275
  0
VERTEX
  5
169
  8
Layer_0
  10
-144.50436
  20
205.4594
  0
VERTEX
  5
16a
  8
Layer_0
  10
-144.54721
  20
205.7002
  0
VERTEX
  5
16b
  8
Layer_0
  10
-144.70047
  20
206.15843
  0
VERTEX
  5
16c
  8
Layer_0
  10
-144.93686
  20
206.57581
  0
VERTEX
  5
16d
  8
Layer_0
  10
-145.24814
  20
206.94069
  0
VERTEX
  5
16e
  8
Layer_0
  10
-145.62637
  20
207.24144
  0
VERTEX
  5
16f
  8
Layer_0
  10
-145.83798
  20
207.36411
  0
VERTEX
  5
170
  8
Layer_0
  10
-146.0632
  20
207.46638
  0
VERTEX
  5
171
  8
Layer_0
  10
-146.30112
  20
207.5468
  0
VERTEX
  5
172
  8
Layer_0
  10
-146.55063
  20
207.6039
  0
VERTEX
  5
173
  8
Layer_0
  10
-146.80466
  20
207.63557
  0
VERTEX
  5
174
  8
Layer_0
  10
-147.05563
  20
207.64137
  0
VERTEX
  5
175
  8
Layer_0
  10
-147.30234
  20
207.62231
  0
VERTEX
  5
176
  8
Layer_0
  10
-147.54306
  20
207.57941
  0
VERTEX
  5
177
  8
Layer_0
  10
-148.00131
  20
207.42615
  0
VERTEX
  5
178
  8
Layer_0
  10
-148.41867
  20
207.18976
  0
VERTEX
  5
179
  8
Layer_0
  10
-148.78354
  20
206.87839
  0
VERTEX
  5
17a
  8
Layer_0
  10
-149.08432
  20
206.50021
  0
VERTEX
  5
17b
  8
Layer_0
  10
-149.207
  20
206.2886
  0
VERTEX
  5
17c
  8
Layer_0
  10
-149.3093
  20
206.06335
  0
VERTEX
  5
17d
  8
Layer_0
  10
-149.38968
  20
205.82549
  0
VERTEX
  5
17e
  8
Layer_0
  10
-149.44681
  20
205.576
  0
VERTEX
  5
17f
  8
Layer_0
  10
-149.47849
  20
205.32204
  0
VERTEX
  5
180
  8
Layer_0
  10
-149.48422
  20
205.071
  0
VERTEX
  5
181
  8
Layer_0
  10
-149.46518
  20
204.82436
  0
VERTEX
  5
182
  8
Layer_0
  10
-149.42233
  20
204.58356
  0
VERTEX
  5
183
  8
Layer_0
  10
-149.26907
  20
204.12532
  0
VERTEX
  5
184
  8
Layer_0
  10
-149.03268
  20
203.70795
  0
VERTEX
  5
185
  8
Layer_0
  10
-148.72141
  20
203.34306
  0
VERTEX
  5
186
  8
Layer_0
  10
-148.34317
  20
203.04231
  0
VERTEX
  5
187
  8
Layer_0
  10
-148.13156
  20
202.91965
  0
VERTEX
  5
188
  8
Layer_0
  10
-147.90634
  20
202.81737
  0
VERTEX
  5
189
  8
Layer_0
  10
-147.66843
  20
202.73695
  0
VERTEX
  5
18a
  8
Layer_0
  10
-147.41891
  20
202.67986
  0
SEQEND
  0
POLYLINE
  5
18c
  8
Layer_0
  62
0
  66
1
  10
0
  20
0
  30
0
  0
VERTEX
  5
18c
  8
Layer_0
  10
-179.98477
  20
248.64188
  0
VERTEX
  5
18d
  8
Layer_0
  10
-180.00546
  20
249.05084
  0
VERTEX
  5
18e
  8
Layer_0
  10
-180.06601
  20
249.44801
  0
VERTEX
  5
18f
  8
Layer_0
  10
-180.16452
  20
249.83136
  0
VERTEX
  5
190
  8
Layer_0
  10
-180.29904
  20
250.19885
  0
VERTEX
  5
191
  8
Layer_0
  10
-180.46744
  20
250.54851
  0
VERTEX
  5
192
  8
Layer_0
  10
-180.66782
  20
250.87831
  0
VERTEX
  5
193
  8
Layer_0
  10
-180.89816
  20
251.18625
  0
VERTEX
  5
194
  8
Layer_0
  10
-181.15634
  20
251.47031
  0
VERTEX
  5
195
  8
Layer_0
  10
-181.4404
  20
251.72847
  0
VERTEX
  5
196
  8
Layer_0
  10
-181.74832
  20
251.95874
  0
VERTEX
  5
197
  8
Layer_0
  10
-182.07816
  20
252.15909
  0
VERTEX
  5
198
  8
Layer_0
  10
-182.42783
  20
252.32753
  0
VERTEX
  5
199
  8
Layer_0
  10
-182.79532
  20
252.46204
  0
VERTEX
  5
19a
  8
Layer_0
  10
-183.17862
  20
252.56061
  0
VERTEX
  5
19b
  8
Layer_0
  10
-183.57578
  20
252.62122
  0
VERTEX
  5
19c
  8
Layer_0
  10
-183.98477
  20
252.64188
  0
SEQEND
  0
POLYLINE
  5
19e
  8
Layer_0
  62
0
  66
1
  10
0
  20
0
  30
0
  0
VERTEX
  5
19e
  8
Layer_0
  10
-210.98477
  20
252.64188
  0
VERTEX
  5
19f
  8
Layer_0
  10
-211.39377
  20
252.62122
  0
VERTEX
  5
1a0
  8
Layer_0
  10
-211.79092
  20
252.56061
  0
VERTEX
  5
1a1
  8
Layer_0
  10
-212.17422
  20
252.46204
  0
VERTEX
  5
1a2
  8
Layer_0
  10
-212.54172
  20
252.32753
  0
VERTEX
  5
1a3
  8
Layer_0
  10
-212.89139
  20
252.15909
  0
VERTEX
  5
1a4
  8
Layer_0
  10
-213.22122
  20
251.95874
  0
VERTEX
  5
1a5
  8
Layer_0
  10
-213.52914
  20
251.72847
  0
VERTEX
  5
1a6
  8
Layer_0
  10
-213.8132
  20
251.47031
  0
VERTEX
  5
1a7
  8
Layer_0
  10
-214.07138
  20
251.18625
  0
VERTEX
  5
1a8
  8
Layer_0
  10
-214.30173
  20
250.87831
  0
VERTEX
  5
1a9
  8
Layer_0
  10
-214.50211
  20
250.54851
  0
VERTEX
  5
1aa
  8
Layer_0
  10
-214.6705
  20
250.19885
  0
VERTEX
  5
1ab
  8
Layer_0
  10
-214.80502
  20
249.83136
  0
VERTEX
  5
1ac
  8
Layer_0
  10
-214.90353
  20
249.44801
  0
VERTEX
  5
1ad
  8
Layer_0
  10
-214.96408
  20
249.05084
  0
VERTEX
  5
1ae
  8
Layer_0
  10
-214.98477
  20
248.64188
  0
SEQEND
  0
POLYLINE
  5
1b0
  8
Layer_0
  62
0
  66
1
  10
0
  20
0
  30
0
  0
VERTEX
  5
1b0
  8
Layer_0
  10
-183.98477
  20
217.64188
  0
VERTEX
  5
1b1
  8
Layer_0
  10
-183.57578
  20
217.66254
  0
VERTEX
  5
1b2
  8
Layer_0
  10
-183.17862
  20
217.72314
  0
VERTEX
  5
1b3
  8
Layer_0
  10
-182.79532
  20
217.82172
  0
VERTEX
  5
1b4
  8
Layer_0
  10
-182.42783
  20
217.95622
  0
VERTEX
  5
1b5
  8
Layer_0
  10
-182.07816
  20
218.12466
  0
VERTEX
  5
1b6
  8
Layer_0
  10
-181.74832
  20
218.32501
  0
VERTEX
  5
1b7
  8
Layer_0
  10
-181.4404
  20
218.55528
  0
VERTEX
  5
1b8
  8
Layer_0
  10
-181.15634
  20
218.81345
  0
VERTEX
  5
1b9
  8
Layer_0
  10
-180.89816
  20
219.0975
  0
VERTEX
  5
1ba
  8
Layer_0
  10
-180.66782
  20
219.40543
  0
VERTEX
  5
1bb
  8
Layer_0
  10
-180.46744
  20
219.73523
  0
VERTEX
  5
1bc
  8
Layer_0
  10
-180.29904
  20
220.0849
  0
VERTEX
  5
1bd
  8
Layer_0
  10
-180.16452
  20
220.45239
  0
VERTEX
  5
1be
  8
Layer_0
  10
-180.06601
  20
220.83574
  0
VERTEX
  5
1bf
  8
Layer_0
  10
-180.00546
  20
221.23291
  0
VERTEX
  5
1c0
  8
Layer_0
  10
-179.98477
  20
221.64188
  0
SEQEND
  0
POLYLINE
  5
1c2
  8
Layer_0
  62
0
  66
1
  10
0
  20
0
  30
0
  0
VERTEX
  5
1c2
  8
Layer_0
  10
-214.98477
  20
221.64188
  0
VERTEX
  5
1c3
  8
Layer_0
  10
-214.96408
  20
221.23291
  0
VERTEX
  5
1c4
  8
Layer_0
  10
-214.90353
  20
220.83574
  0
VERTEX
  5
1c5
  8
Layer_0
  10
-214.80502
  20
220.45239
  0
VERTEX
  5
1c6
  8
Layer_0
  10
-214.6705
  20
220.0849
  0
VERTEX
  5
1c7
  8
Layer_0
  10
-214.50211
  20
219.73523
  0
VERTEX
  5
1c8
  8
Layer_0
  10
-214.30173
  20
219.40543
  0
VERTEX
  5
1c9
  8
Layer_0
  10
-214.07138
  20
219.0975
  0
VERTEX
  5
1ca
  8
Layer_0
  10
-213.8132
  20
218.81345
  0
VERTEX
  5
1cb
  8
Layer_0
  10
-213.52914
  20
218.55528
  0
VERTEX
  5
1cc
  8
Layer_0
  10
-213.22122
  20
218.32501
  0
VERTEX
  5
1cd
  8
Layer_0
  10
-212.89139
  20
218.12466
  0
VERTEX
  5
1ce
  8
Layer_0
  10
-212.54172
  20
217.95622
  0
VERTEX
  5
1cf
  8
Layer_0
  10
-212.17422
  20
217.82172
  0
VERTEX
  5
1d0
  8
Layer_0
  10
-211.79092
  20
217.72314
  0
VERTEX
  5
1d1
  8
Layer_0
  10
-211.39377
  20
217.66254
  0
VERTEX
  5
1d2
  8
Layer_0
  10
-210.98477
  20
217.64188
  0
SEQEND
  0
POLYLINE
  5
1d4
  8
Layer_0
  62
0
  66
1
  10
0
  20
0
  30
0
  0
VERTEX
  5
1d4
  8
Layer_0
  10
-179.98477
  20
248.64188
  0
VERTEX
  5
1d5
  8
Layer_0
  10
-179.98477
  20
221.64188
  0
SEQEND
  0
POLYLINE
  5
1d7
  8
Layer_0
  62
0
  66
1
  10
0
  20
0
  30
0
  0
VERTEX
  5
1d7
  8
Layer_0
  10
-214.98477
  20
221.64188
  0
VERTEX
  5
1d8
  8
Layer_0
  10
-214.98477
  20
248.64188
  0
SEQEND
  0
POLYLINE
  5
1da
  8
Layer_0
  62
0
  66
1
  10
0
  20
0
  30
0
  0
VERTEX
  5
1da
  8
Layer_0
  10
-183.98477
  20
217.64188
  0
VERTEX
  5
1db
  8
Layer_0
  10
-210.98477
  20
217.64188
  0
SEQEND
  0
POLYLINE
  5
1dd
  8
Layer_0
  62
0
  66
1
  10
0
  20
0
  30
0
  0
VERTEX
  5
1dd
  8
Layer_0
  10
-210.98477
  20
252.64188
  0
VERTEX
  5
1de
  8
Layer_0
  10
-183.98477
  20
252.64188
  0
SEQEND
  0
CIRCLE
  5
1e0
  8
Layer_0
  62
0
  10
-197.48477
  20
235.14186
  30
0
  40
2.5999999
  0
CIRCLE
  5
1e0
  8
Layer_0
  62
0
  10
-187.48477
  20
245.14186
  30
0
  40
2.5999999
  0
CIRCLE
  5
1e0
  8
Layer_0
  62
0
  10
-207.48477
  20
225.14186
  30
0
  40
2.5999999
  0
CIRCLE
  5
1e0
  8
Layer_0
  62
0
  10
-207.48477
  20
245.14186
  30
0
  40
2.5999999
  0
CIRCLE
  5
1e0
  8
Layer_0
  62
0
  10
-187.48477
  20
225.14186
  30
0
  40
2.5999999
  0
ENDSEC
  0
EOF
